<svg width="392" height="349" viewBox="0 0 392 349" fill="none" xmlns="http://www.w3.org/2000/svg">
<path d="M279.548 282.012V154.868L164.032 218.44V346.36L279.548 282.012Z" fill="#ECF0F4" stroke="#D1D6D9" stroke-width="2"/>
<path d="M43.8647 154.868L164.032 218.44V345.585L43.8647 282.013V154.868Z" fill="white" stroke="#D4DADD" stroke-width="2"/>
<path d="M43.8648 154.864L2 122.302L121.392 57.1786L164.032 91.2908L205.897 57.1786L322.964 122.302L279.548 154.864L322.964 197.504L205.897 261.852L164.032 218.436L121.392 261.852L2 197.504L43.8648 154.864Z" fill="white"/>
<path d="M43.8648 154.864L2 122.302L121.392 57.1786L164.032 91.2908M43.8648 154.864L164.032 91.2908M43.8648 154.864L2 197.504L121.392 261.852L164.032 218.436L205.897 261.852L322.964 197.504L279.548 154.864L322.964 122.302L205.897 57.1786L164.032 91.2908" stroke="#CFD5D8" stroke-width="2"/>
<path d="M164.808 91.2947L43.8647 154.867L164.808 217.665V91.2947Z" fill="#E4E9ED" stroke="#CDD4D7" stroke-width="2"/>
<path d="M279.548 154.867L164.808 91.2947V218.44L279.548 154.867Z" fill="#ECF0F4" stroke="#CDD4D7" stroke-width="2"/>
<path d="M164.111 163.137C166.437 130.059 188.455 71.8098 257.919 103.441C327.384 135.072 357.154 73.2053 363.356 38.3179" stroke="#CFD5D8" stroke-width="2" stroke-dasharray="5 5"/>
<path d="M382.057 24.4451C377.568 27.6467 371.635 26.8025 368.763 22.7763C365.891 18.7501 367.025 12.8647 371.513 9.66313C376.001 6.46158 381.935 7.30579 384.807 11.332C387.679 15.3581 386.545 21.2436 382.057 24.4451Z" fill="white" stroke="#C4C4C4" stroke-width="2"/>
<path d="M358.18 25.3594C364.907 25.3594 370.36 19.9064 370.36 13.1797C370.36 6.45304 364.907 1 358.18 1C351.453 1 346 6.45304 346 13.1797C346 19.9064 351.453 25.3594 358.18 25.3594Z" fill="white" stroke="#C4C4C4" stroke-width="2"/>
<path d="M365.157 32.5588C369.439 32.5588 372.91 29.0877 372.91 24.806C372.91 20.5243 369.439 17.0532 365.157 17.0532C360.875 17.0532 357.404 20.5243 357.404 24.806C357.404 29.0877 360.875 32.5588 365.157 32.5588Z" fill="#C4C4C4"/>
</svg>
