<svg width="18" height="18" viewBox="0 0 18 18" fill="none" xmlns="http://www.w3.org/2000/svg">
<path fill-rule="evenodd" clip-rule="evenodd" d="M5.46078 4.66425C5.51316 4.71651 5.55472 4.77858 5.58308 4.84692C5.61144 4.91526 5.62603 4.98852 5.62603 5.0625C5.62603 5.13649 5.61144 5.20975 5.58308 5.27809C5.55472 5.34643 5.51316 5.4085 5.46078 5.46075L1.9204 9.00001L5.46078 12.5393C5.5664 12.6449 5.62574 12.7881 5.62574 12.9375C5.62574 13.0869 5.5664 13.2301 5.46078 13.3358C5.35516 13.4414 5.2119 13.5007 5.06253 13.5007C4.91316 13.5007 4.7699 13.4414 4.66428 13.3358L0.726779 9.39826C0.674395 9.346 0.632835 9.28393 0.604477 9.21559C0.57612 9.14725 0.561523 9.07399 0.561523 9.00001C0.561523 8.92602 0.57612 8.85276 0.604477 8.78442C0.632835 8.71608 0.674395 8.65401 0.726779 8.60176L4.66428 4.66425C4.71653 4.61187 4.7786 4.57031 4.84694 4.54195C4.91528 4.5136 4.98854 4.499 5.06253 4.499C5.13652 4.499 5.20978 4.5136 5.27812 4.54195C5.34645 4.57031 5.40853 4.61187 5.46078 4.66425V4.66425ZM12.5393 4.66425C12.4869 4.71651 12.4453 4.77858 12.417 4.84692C12.3886 4.91526 12.374 4.98852 12.374 5.0625C12.374 5.13649 12.3886 5.20975 12.417 5.27809C12.4453 5.34643 12.4869 5.4085 12.5393 5.46075L16.0797 9.00001L12.5393 12.5393C12.487 12.5916 12.4455 12.6536 12.4172 12.722C12.3889 12.7903 12.3743 12.8635 12.3743 12.9375C12.3743 13.0115 12.3889 13.0847 12.4172 13.153C12.4455 13.2214 12.487 13.2835 12.5393 13.3358C12.5916 13.3881 12.6537 13.4295 12.722 13.4578C12.7903 13.4861 12.8636 13.5007 12.9375 13.5007C13.0115 13.5007 13.0847 13.4861 13.1531 13.4578C13.2214 13.4295 13.2835 13.3881 13.3358 13.3358L17.2733 9.39826C17.3257 9.346 17.3672 9.28393 17.3956 9.21559C17.4239 9.14725 17.4385 9.07399 17.4385 9.00001C17.4385 8.92602 17.4239 8.85276 17.3956 8.78442C17.3672 8.71608 17.3257 8.65401 17.2733 8.60176L13.3358 4.66425C13.2835 4.61187 13.2215 4.57031 13.1531 4.54195C13.0848 4.5136 13.0115 4.499 12.9375 4.499C12.8635 4.499 12.7903 4.5136 12.7219 4.54195C12.6536 4.57031 12.5915 4.61187 12.5393 4.66425V4.66425ZM11.4154 1.14975C11.5578 1.19382 11.6769 1.29264 11.7466 1.42448C11.8162 1.55632 11.8306 1.71041 11.7867 1.85288L7.28665 16.4779C7.23847 16.615 7.13906 16.7282 7.00927 16.7937C6.87948 16.8591 6.72939 16.8718 6.59046 16.829C6.45153 16.7862 6.33455 16.6914 6.26405 16.5642C6.19354 16.4371 6.17499 16.2876 6.21228 16.1471L10.7123 1.52213C10.7563 1.3797 10.8552 1.26059 10.987 1.19098C11.1188 1.12137 11.2729 1.10694 11.4154 1.15088V1.14975Z" fill="#6890F0"/>
</svg>
