<svg width="33" height="33" viewBox="0 0 33 33" fill="none" xmlns="http://www.w3.org/2000/svg">
<path d="M30.9375 28.875C30.9375 28.875 33 28.875 33 26.8125C33 24.75 30.9375 18.5625 22.6875 18.5625C14.4375 18.5625 12.375 24.75 12.375 26.8125C12.375 28.875 14.4375 28.875 14.4375 28.875H30.9375ZM14.4829 26.8125C14.4676 26.8104 14.4525 26.8076 14.4375 26.8043C14.4396 26.2598 14.7819 24.6799 16.005 23.2568C17.1435 21.9223 19.1441 20.625 22.6875 20.625C26.2288 20.625 28.2294 21.9244 29.37 23.2568C30.5931 24.6799 30.9334 26.2618 30.9375 26.8043L30.921 26.8084C30.9114 26.81 30.9018 26.8114 30.8921 26.8125H14.4829V26.8125ZM22.6875 14.4375C23.7815 14.4375 24.8307 14.0029 25.6043 13.2293C26.3779 12.4557 26.8125 11.4065 26.8125 10.3125C26.8125 9.21848 26.3779 8.16927 25.6043 7.39568C24.8307 6.6221 23.7815 6.1875 22.6875 6.1875C21.5935 6.1875 20.5443 6.6221 19.7707 7.39568C18.9971 8.16927 18.5625 9.21848 18.5625 10.3125C18.5625 11.4065 18.9971 12.4557 19.7707 13.2293C20.5443 14.0029 21.5935 14.4375 22.6875 14.4375ZM28.875 10.3125C28.875 11.1251 28.715 11.9297 28.404 12.6804C28.0931 13.4311 27.6373 14.1132 27.0627 14.6877C26.4882 15.2623 25.8061 15.7181 25.0554 16.029C24.3047 16.34 23.5001 16.5 22.6875 16.5C21.8749 16.5 21.0703 16.34 20.3196 16.029C19.5689 15.7181 18.8868 15.2623 18.3123 14.6877C17.7377 14.1132 17.2819 13.4311 16.971 12.6804C16.66 11.9297 16.5 11.1251 16.5 10.3125C16.5 8.67147 17.1519 7.09766 18.3123 5.93728C19.4727 4.7769 21.0465 4.125 22.6875 4.125C24.3285 4.125 25.9023 4.7769 27.0627 5.93728C28.2231 7.09766 28.875 8.67147 28.875 10.3125V10.3125ZM14.3055 19.14C13.4805 18.8802 12.63 18.7094 11.7686 18.6306C11.2846 18.5845 10.7987 18.5618 10.3125 18.5625C2.0625 18.5625 0 24.75 0 26.8125C0 28.1882 0.686813 28.875 2.0625 28.875H10.758C10.4522 28.2311 10.2998 27.5252 10.3125 26.8125C10.3125 24.7294 11.0901 22.6009 12.5606 20.823C13.0618 20.2166 13.6455 19.6494 14.3055 19.14ZM10.1475 20.625C8.92682 22.4591 8.26741 24.6094 8.25 26.8125H2.0625C2.0625 26.2763 2.40075 24.6881 3.63 23.2568C4.75406 21.945 6.70725 20.6663 10.1475 20.6271V20.625ZM3.09375 11.3438C3.09375 9.70272 3.74565 8.12891 4.90603 6.96853C6.06641 5.80815 7.64022 5.15625 9.28125 5.15625C10.9223 5.15625 12.4961 5.80815 13.6565 6.96853C14.8169 8.12891 15.4687 9.70272 15.4688 11.3438C15.4688 12.9848 14.8169 14.5586 13.6565 15.719C12.4961 16.8794 10.9223 17.5312 9.28125 17.5312C7.64022 17.5312 6.06641 16.8794 4.90603 15.719C3.74565 14.5586 3.09375 12.9848 3.09375 11.3438V11.3438ZM9.28125 7.21875C8.18723 7.21875 7.13802 7.65335 6.36443 8.42693C5.59085 9.20052 5.15625 10.2497 5.15625 11.3438C5.15625 12.4378 5.59085 13.487 6.36443 14.2606C7.13802 15.0342 8.18723 15.4687 9.28125 15.4688C10.3753 15.4687 11.4245 15.0342 12.1981 14.2606C12.9717 13.487 13.4062 12.4378 13.4062 11.3438C13.4062 10.2497 12.9717 9.20052 12.1981 8.42693C11.4245 7.65335 10.3753 7.21875 9.28125 7.21875Z" fill="#6890F0"/>
</svg>
