<svg width="30" height="30" viewBox="0 0 30 30" fill="none" xmlns="http://www.w3.org/2000/svg">
<path d="M26.25 1.875C26.7473 1.875 27.2242 2.07254 27.5758 2.42417C27.9275 2.77581 28.125 3.25272 28.125 3.75V26.25C28.125 26.7473 27.9275 27.2242 27.5758 27.5758C27.2242 27.9275 26.7473 28.125 26.25 28.125H3.75C3.25272 28.125 2.77581 27.9275 2.42417 27.5758C2.07254 27.2242 1.875 26.7473 1.875 26.25V3.75C1.875 3.25272 2.07254 2.77581 2.42417 2.42417C2.77581 2.07254 3.25272 1.875 3.75 1.875H26.25ZM3.75 0C2.75544 0 1.80161 0.395088 1.09835 1.09835C0.395088 1.80161 0 2.75544 0 3.75L0 26.25C0 27.2446 0.395088 28.1984 1.09835 28.9016C1.80161 29.6049 2.75544 30 3.75 30H26.25C27.2446 30 28.1984 29.6049 28.9016 28.9016C29.6049 28.1984 30 27.2446 30 26.25V3.75C30 2.75544 29.6049 1.80161 28.9016 1.09835C28.1984 0.395088 27.2446 0 26.25 0L3.75 0Z" fill="#6890F0"/>
<path d="M12.8512 8.71125C12.9385 8.79833 13.0078 8.90179 13.0551 9.01568C13.1023 9.12958 13.1266 9.25168 13.1266 9.375C13.1266 9.49831 13.1023 9.62041 13.0551 9.73431C13.0078 9.84821 12.9385 9.95166 12.8512 10.0387L7.88809 15L12.8512 19.9612C13.0273 20.1373 13.1262 20.376 13.1262 20.625C13.1262 20.874 13.0273 21.1127 12.8512 21.2887C12.6752 21.4648 12.4364 21.5637 12.1875 21.5637C11.9385 21.5637 11.6998 21.4648 11.5237 21.2887L5.89872 15.6637C5.81141 15.5767 5.74214 15.4732 5.69488 15.3593C5.64762 15.2454 5.62329 15.1233 5.62329 15C5.62329 14.8767 5.64762 14.7546 5.69488 14.6407C5.74214 14.5268 5.81141 14.4233 5.89872 14.3362L11.5237 8.71125C11.6108 8.62394 11.7143 8.55467 11.8282 8.50741C11.9421 8.46015 12.0642 8.43582 12.1875 8.43582C12.3108 8.43582 12.4329 8.46015 12.5468 8.50741C12.6607 8.55467 12.7641 8.62394 12.8512 8.71125V8.71125ZM17.1487 8.71125C17.0614 8.79833 16.9921 8.90179 16.9449 9.01568C16.8976 9.12958 16.8733 9.25168 16.8733 9.375C16.8733 9.49831 16.8976 9.62041 16.9449 9.73431C16.9921 9.84821 17.0614 9.95166 17.1487 10.0387L22.1118 15L17.1487 19.9612C16.9727 20.1373 16.8738 20.376 16.8738 20.625C16.8738 20.874 16.9727 21.1127 17.1487 21.2887C17.3248 21.4648 17.5635 21.5637 17.8125 21.5637C18.0614 21.5637 18.3002 21.4648 18.4762 21.2887L24.1012 15.6637C24.1885 15.5767 24.2578 15.4732 24.3051 15.3593C24.3523 15.2454 24.3766 15.1233 24.3766 15C24.3766 14.8767 24.3523 14.7546 24.3051 14.6407C24.2578 14.5268 24.1885 14.4233 24.1012 14.3362L18.4762 8.71125C18.3891 8.62394 18.2857 8.55467 18.1718 8.50741C18.0579 8.46015 17.9358 8.43582 17.8125 8.43582C17.6892 8.43582 17.5671 8.46015 17.4532 8.50741C17.3393 8.55467 17.2358 8.62394 17.1487 8.71125V8.71125Z" fill="#6890F0"/>
</svg>
