<svg width="27" height="35" viewBox="0 0 27 35" fill="none" xmlns="http://www.w3.org/2000/svg">
<g clip-path="url(#clip0)">
<path d="M24.0625 25.1562V27.3438C24.0625 27.64 24.1707 27.8963 24.3872 28.1128C24.6037 28.3293 24.86 28.4375 25.1562 28.4375C25.4525 28.4375 25.7088 28.5457 25.9253 28.7622C26.1418 28.9787 26.25 29.235 26.25 29.5312C26.25 29.8275 26.1418 30.0838 25.9253 30.3003C25.7088 30.5168 25.4525 30.625 25.1562 30.625H13.125V35L9.84375 32.8125L6.5625 35V30.625H2.1875C1.59505 30.625 1.08236 30.4142 0.649414 29.9927C0.216471 29.5711 0 29.0527 0 28.4375V2.1875C0 1.59505 0.216471 1.08236 0.649414 0.649414C1.08236 0.216471 1.59505 0 2.1875 0H24.0625C24.6777 0 25.1961 0.216471 25.6177 0.649414C26.0392 1.08236 26.25 1.59505 26.25 2.1875V24.0625H25.1562C24.86 24.0625 24.6037 24.1707 24.3872 24.3872C24.1707 24.6037 24.0625 24.86 24.0625 25.1562ZM2.1875 25.1562V27.3438C2.1875 27.64 2.29574 27.8963 2.51221 28.1128C2.72868 28.3293 2.98503 28.4375 3.28125 28.4375H6.5625V26.25H13.125V28.4375H20.7812C21.0775 28.4375 21.3338 28.3293 21.5503 28.1128C21.7668 27.8963 21.875 27.64 21.875 27.3438V25.1562C21.875 24.86 21.7668 24.6037 21.5503 24.3872C21.3338 24.1707 21.0775 24.0625 20.7812 24.0625H3.28125C2.98503 24.0625 2.72868 24.1707 2.51221 24.3872C2.29574 24.6037 2.1875 24.86 2.1875 25.1562ZM24.0625 3.28125C24.0625 2.98503 23.9543 2.72868 23.7378 2.51221C23.5213 2.29574 23.265 2.1875 22.9688 2.1875H5.46875C5.17253 2.1875 4.91618 2.29574 4.69971 2.51221C4.48324 2.72868 4.375 2.98503 4.375 3.28125V20.7812C4.375 21.0775 4.48324 21.3338 4.69971 21.5503C4.91618 21.7668 5.17253 21.875 5.46875 21.875H22.9688C23.265 21.875 23.5213 21.7668 23.7378 21.5503C23.9543 21.3338 24.0625 21.0775 24.0625 20.7812V3.28125ZM18.5938 13.125H9.84375C9.54753 13.125 9.29118 13.0168 9.07471 12.8003C8.85824 12.5838 8.75 12.3275 8.75 12.0312C8.75 11.735 8.85824 11.4787 9.07471 11.2622C9.29118 11.0457 9.54753 10.9375 9.84375 10.9375H18.5938C18.89 10.9375 19.1463 11.0457 19.3628 11.2622C19.5793 11.4787 19.6875 11.735 19.6875 12.0312C19.6875 12.3275 19.5793 12.5838 19.3628 12.8003C19.1463 13.0168 18.89 13.125 18.5938 13.125ZM18.5938 8.75H9.84375C9.54753 8.75 9.29118 8.64176 9.07471 8.42529C8.85824 8.20882 8.75 7.95247 8.75 7.65625C8.75 7.36003 8.85824 7.10368 9.07471 6.88721C9.29118 6.67074 9.54753 6.5625 9.84375 6.5625H18.5938C18.89 6.5625 19.1463 6.67074 19.3628 6.88721C19.5793 7.10368 19.6875 7.36003 19.6875 7.65625C19.6875 7.95247 19.5793 8.20882 19.3628 8.42529C19.1463 8.64176 18.89 8.75 18.5938 8.75Z" fill="#6890F0"/>
</g>
<defs>
<clipPath id="clip0">
<rect width="26.25" height="35" fill="white"/>
</clipPath>
</defs>
</svg>
